<svg id="Layer_1" data-name="Layer 1" xmlns="http://www.w3.org/2000/svg" viewBox="0 0 260 195"><defs><style>.cls-1{fill:none;stroke:#363636;stroke-miterlimit:10;stroke-width:0.5px;}.cls-2{fill:#81c8be;}.cls-3{fill:#fff;}.cls-4{fill:#e5c890;}.cls-5{font-size:48px;font-family:Harmond-ExtraBoldExpanded, Harmond;font-weight:800;}.cls-11,.cls-5{fill:#363636;}.cls-6{letter-spacing:-0.02em;}.cls-7{letter-spacing:-0.01em;}.cls-8{letter-spacing:-0.03em;}.cls-9{letter-spacing:-0.01em;}.cls-10{letter-spacing:-0.02em;}.cls-11{font-size:16px;font-family:NotoMono, Noto Mono;}</style></defs><line class="cls-1" x1="16.51" y1="84.54" x2="243.49" y2="84.54"/><rect class="cls-2" x="77.78" y="75.43" width="50.56" height="17.83" rx="5.77"/><path class="cls-3" d="M83.38,90.56V81.65h1.47L85,83v7.6ZM86.62,88a1.61,1.61,0,0,1-1-.31,1.41,1.41,0,0,1-.49-.93h-.55l.42-2a2.5,2.5,0,0,0,.27,1.32,1.06,1.06,0,0,0,1,.41,1.11,1.11,0,0,0,.94-.44,2.19,2.19,0,0,0,.32-1.29,2.16,2.16,0,0,0-.33-1.28,1.09,1.09,0,0,0-.93-.45,1.06,1.06,0,0,0-.91.41A2.21,2.21,0,0,0,85,84.76l-.36-2h.46a1.53,1.53,0,0,1,.47-.94,1.69,1.69,0,0,1,1.08-.31,2.15,2.15,0,0,1,1.81.85,4.76,4.76,0,0,1,0,4.77A2.16,2.16,0,0,1,86.62,88Z"/><path class="cls-3" d="M91.83,87.86l-2.09-6.21h1.69L93,86.52h.28v1.34Zm-2,2.82L89.8,89.3l1.08-.12a2.42,2.42,0,0,0,.94-.29,2,2,0,0,0,.67-.68A4.45,4.45,0,0,0,93,87l1.5-5.37h1.68l-1.74,5.66a7.27,7.27,0,0,1-.81,1.8,3,3,0,0,1-1.08,1,3.94,3.94,0,0,1-1.5.43Z"/><path class="cls-3" d="M96.86,83.11V81.65h5.83v1.46Zm1.49,1.72v-5h1.58v5Zm3,3.15a3.4,3.4,0,0,1-2.32-.64,2.65,2.65,0,0,1-.72-2.07v-.81h1.58v.66a1.32,1.32,0,0,0,.37,1,1.78,1.78,0,0,0,1.2.32l.58,0,.7-.08.14,1.48a7,7,0,0,1-.75.1A6.46,6.46,0,0,1,101.39,88Z"/><path class="cls-3" d="M104.47,87.86V79.07h1.59v8.79Zm3.67,0V84.11a1.21,1.21,0,0,0-.23-.8.79.79,0,0,0-.66-.28c-.79,0-1.19.54-1.19,1.63l-.37-1.88h.52a1.28,1.28,0,0,1,1.46-1.25,1.94,1.94,0,0,1,1.52.6,2.43,2.43,0,0,1,.54,1.69v4Z"/><path class="cls-3" d="M114.13,88a2.63,2.63,0,0,1-2.08-.84,3.53,3.53,0,0,1-.74-2.38,3.5,3.5,0,0,1,.74-2.38,3,3,0,0,1,4.16,0,3.5,3.5,0,0,1,.74,2.38,3.53,3.53,0,0,1-.74,2.38A2.61,2.61,0,0,1,114.13,88Zm0-1.51A1,1,0,0,0,115,86a2.29,2.29,0,0,0,.31-1.27,2.24,2.24,0,0,0-.31-1.27,1,1,0,0,0-.89-.45,1,1,0,0,0-.88.45,2.17,2.17,0,0,0-.31,1.27,2.21,2.21,0,0,0,.31,1.27A1,1,0,0,0,114.13,86.47Z"/><path class="cls-3" d="M118.53,87.86V81.65H120l.17,1.31v4.9Zm3.68,0V84.21a1.35,1.35,0,0,0-.24-.86.76.76,0,0,0-.66-.31c-.79,0-1.19.57-1.19,1.72l-.36-2h.51a1.51,1.51,0,0,1,.43-.94,1.53,1.53,0,0,1,1-.31,1.93,1.93,0,0,1,1.52.6,2.43,2.43,0,0,1,.54,1.69v4Z"/><rect class="cls-4" x="131.78" y="75.43" width="50.56" height="17.83" rx="5.77"/><path class="cls-3" d="M137.43,90.56V81.65h1.47L139,83v7.6ZM140.67,88a1.61,1.61,0,0,1-1-.31,1.45,1.45,0,0,1-.49-.93h-.55l.43-2a2.44,2.44,0,0,0,.27,1.31,1,1,0,0,0,.94.41,1.09,1.09,0,0,0,.94-.43,2.19,2.19,0,0,0,.32-1.29,2.14,2.14,0,0,0-.33-1.28,1.09,1.09,0,0,0-.93-.45,1.07,1.07,0,0,0-.91.41,2.3,2.3,0,0,0-.3,1.32l-.37-2h.46a1.49,1.49,0,0,1,.48-.94,1.64,1.64,0,0,1,1.07-.31,2.15,2.15,0,0,1,1.81.85,4.76,4.76,0,0,1,0,4.77A2.16,2.16,0,0,1,140.67,88Z"/><path class="cls-3" d="M146.13,88a2.23,2.23,0,0,1-1.54-.49,1.72,1.72,0,0,1-.55-1.38,1.89,1.89,0,0,1,.72-1.6,3.28,3.28,0,0,1,2-.56,5.52,5.52,0,0,1,.88.06,5.43,5.43,0,0,1,.76.16l-.26,1.24a3.72,3.72,0,0,0-.67-.11h-.63c-.82,0-1.23.23-1.23.7a.59.59,0,0,0,.22.49,1.1,1.1,0,0,0,.65.16,1.71,1.71,0,0,0,.86-.19,1.3,1.3,0,0,0,.52-.49,1.19,1.19,0,0,0,.17-.62V85l.23,1.59h-.5l.2-.19a1.76,1.76,0,0,1-.24.9,1.41,1.41,0,0,1-.64.54A2.5,2.5,0,0,1,146.13,88Zm2.1-.06-.13-1.84,0-.81V84.06a.77.77,0,0,0-.42-.73,3,3,0,0,0-1.26-.26l-1.59,0,.12-1.44,1.35,0a4.18,4.18,0,0,1,2.51.67,2.24,2.24,0,0,1,.82,1.87v2.29l.86.13v1.29Z"/><path class="cls-3" d="M151.49,87.86V81.65h1.42l.17,1.31v4.9Zm3.67,0V84.21a1.41,1.41,0,0,0-.23-.87.77.77,0,0,0-.66-.3c-.79,0-1.19.57-1.19,1.72l-.36-2h.51a1.28,1.28,0,0,1,1.46-1.25,1.93,1.93,0,0,1,1.52.6,2.43,2.43,0,0,1,.54,1.69v4Z"/><path class="cls-3" d="M160.54,88a2.16,2.16,0,0,1-1.8-.83,4.76,4.76,0,0,1,0-4.77,2.15,2.15,0,0,1,1.81-.85,1.54,1.54,0,0,1,1,.31,1.53,1.53,0,0,1,.46.94h.52l-.36,2a2.29,2.29,0,0,0-.31-1.32A1.06,1.06,0,0,0,161,83a1.09,1.09,0,0,0-.93.45,2.14,2.14,0,0,0-.33,1.28,2.19,2.19,0,0,0,.32,1.29,1.1,1.1,0,0,0,.94.43,1,1,0,0,0,1-.41,2.44,2.44,0,0,0,.27-1.31l.42,2h-.55a1.45,1.45,0,0,1-.49.93A1.61,1.61,0,0,1,160.54,88Zm1.88-.06-.22-1.23V79.07h1.58v8.79Z"/><path class="cls-3" d="M167.22,88a2.23,2.23,0,0,1-1.54-.49,1.72,1.72,0,0,1-.55-1.38,1.89,1.89,0,0,1,.72-1.6A3.29,3.29,0,0,1,167.9,84a5.61,5.61,0,0,1,.88.06,5,5,0,0,1,.75.16l-.26,1.24a3.72,3.72,0,0,0-.67-.11H168c-.82,0-1.23.23-1.23.7a.59.59,0,0,0,.23.49,1.06,1.06,0,0,0,.65.16,1.74,1.74,0,0,0,.86-.19A1.37,1.37,0,0,0,169,86a1.29,1.29,0,0,0,.17-.62V85l.22,1.59h-.5l.21-.19a1.77,1.77,0,0,1-.25.9,1.36,1.36,0,0,1-.64.54A2.47,2.47,0,0,1,167.22,88Zm2.11-.06-.14-1.84,0-.81V84.06a.77.77,0,0,0-.43-.73,3,3,0,0,0-1.26-.26l-1.59,0,.12-1.44,1.35,0a4.16,4.16,0,0,1,2.51.67,2.21,2.21,0,0,1,.82,1.87v2.29l.86.13v1.29Z"/><path class="cls-3" d="M174.73,88c-.47,0-.89,0-1.25,0a7.5,7.5,0,0,1-1-.14l.19-1.51,1.24.14c.34,0,.6,0,.79,0a4.07,4.07,0,0,0,1.16-.11c.24-.07.36-.18.36-.34a.3.3,0,0,0-.09-.23.8.8,0,0,0-.28-.14l-2-.58a1.85,1.85,0,0,1-.94-.56,1.48,1.48,0,0,1-.31-1,1.62,1.62,0,0,1,.84-1.49,5.32,5.32,0,0,1,2.56-.49l.83,0,.91.09-.17,1.47-.93-.06L176,83a6.13,6.13,0,0,0-1.34.1c-.27.07-.41.18-.41.34a.27.27,0,0,0,.09.22.57.57,0,0,0,.26.14l1.74.48a2.43,2.43,0,0,1,1.2.63,1.49,1.49,0,0,1,.4,1.07,1.64,1.64,0,0,1-.79,1.48A4.69,4.69,0,0,1,174.73,88Z"/><rect class="cls-1" x="8.29" y="6.45" width="243.42" height="182.1"/><text class="cls-5" transform="translate(35.13 58.41)"><tspan class="cls-6">c</tspan><tspan x="32.45" y="0">i</tspan><tspan class="cls-7" x="50.3" y="0">n</tspan><tspan class="cls-8" x="85.49" y="0">e</tspan><tspan class="cls-9" x="116.69" y="0">t</tspan><tspan class="cls-10" x="141.65" y="0">e</tspan><tspan x="173.18" y="0">l</tspan></text><text class="cls-11" transform="translate(23.47 117.73)">italian box office <tspan x="0" y="19.2">data scraping, </tspan><tspan x="0" y="38.4">cleaning,</tspan><tspan x="0" y="57.6">&amp; exploration</tspan></text></svg>