<svg id="Layer_1" data-name="Layer 1" xmlns="http://www.w3.org/2000/svg" viewBox="0 0 260 195"><defs><style>.cls-1{fill:none;stroke:#363636;stroke-miterlimit:10;stroke-width:0.5px;}.cls-2{font-size:48px;font-family:Harmond-ExtraBoldExpanded, Harmond;font-weight:800;}.cls-2,.cls-9{fill:#363636;}.cls-3{letter-spacing:-0.01em;}.cls-4{letter-spacing:-0.03em;}.cls-5{letter-spacing:-0.02em;}.cls-6{letter-spacing:-0.02em;}.cls-7{letter-spacing:0em;}.cls-8{letter-spacing:-0.04em;}.cls-9{font-size:16px;font-family:NotoMono, Noto Mono;}.cls-10{fill:#e78284;}.cls-11{fill:#fff;}</style></defs><line class="cls-1" x1="16.51" y1="84.54" x2="243.49" y2="84.54"/><rect class="cls-1" x="8.29" y="6.45" width="243.42" height="182.1"/><text class="cls-2" transform="translate(23.85 58.41)"><tspan class="cls-3">t</tspan><tspan class="cls-4" x="24.91" y="0">a</tspan><tspan class="cls-5" x="56.4" y="0">b</tspan><tspan class="cls-6" x="95.23" y="0">l</tspan><tspan class="cls-7" x="110.83" y="0">e</tspan><tspan class="cls-8" x="143.23" y="0">a</tspan><tspan x="174.19" y="0">u</tspan></text><text class="cls-9" transform="translate(23.47 117.65)">my tableau public <tspan x="0" y="19.2">dashboards</tspan></text><rect class="cls-10" x="104.72" y="75.43" width="50.56" height="17.83" rx="5.77"/><path class="cls-11" d="M105.7,83.11V81.65h5.83v1.46Zm1.49,1.72v-5h1.58v5Zm3,3.15a3.43,3.43,0,0,1-2.33-.64,2.69,2.69,0,0,1-.71-2.07v-.81h1.58v.66a1.28,1.28,0,0,0,.37,1,1.76,1.76,0,0,0,1.2.32l.58,0,.7-.08.14,1.48a7,7,0,0,1-.75.1A6.57,6.57,0,0,1,110.23,88Z"/><path class="cls-11" d="M115,88a2.21,2.21,0,0,1-1.54-.49,1.72,1.72,0,0,1-.55-1.38,1.91,1.91,0,0,1,.72-1.6,3.28,3.28,0,0,1,2-.56,5.61,5.61,0,0,1,.88.06,5.43,5.43,0,0,1,.76.16L117,85.41a3.73,3.73,0,0,0-.68-.1l-.62,0c-.82,0-1.23.24-1.23.7a.57.57,0,0,0,.22.49,1.08,1.08,0,0,0,.65.16,1.74,1.74,0,0,0,.86-.19,1.37,1.37,0,0,0,.52-.49,1.29,1.29,0,0,0,.17-.62V85l.23,1.59h-.5l.2-.19a1.76,1.76,0,0,1-.24.9,1.44,1.44,0,0,1-.65.54A2.42,2.42,0,0,1,115,88Zm2.1-.06L117,86.08l0-.81V84.06a.77.77,0,0,0-.42-.73,2.93,2.93,0,0,0-1.27-.25l-1.58,0,.11-1.44,1.36,0a4.18,4.18,0,0,1,2.51.67,2.24,2.24,0,0,1,.82,1.87v2.29l.86.13v1.29Z"/><path class="cls-11" d="M120.31,87.86V79.07h1.59v8.69Zm1.76.12c-.29,0-.59,0-.88,0l-.88-.09.58-1.57a2.12,2.12,0,0,0,.68.17q.38,0,.75,0a2,2,0,0,0,1.51-.56,2.19,2.19,0,0,0,.54-1.58,1.45,1.45,0,0,0-.3-1,1,1,0,0,0-.84-.34,1.18,1.18,0,0,0-1.33,1.34l-.37-1.59h.53a1.32,1.32,0,0,1,1.48-1.25,2.28,2.28,0,0,1,1.81.74,3,3,0,0,1,.64,2.08A3.5,3.5,0,0,1,125,87,4.12,4.12,0,0,1,122.07,88Z"/><path class="cls-11" d="M127,80.53V79.07h1.86v1.46Zm4,7.45a2.07,2.07,0,0,1-1.7-.64,3.35,3.35,0,0,1-.51-2.07v-6.2h1.58v6.14a2.27,2.27,0,0,0,.08.64.63.63,0,0,0,.32.36,1.57,1.57,0,0,0,.7.12,5.39,5.39,0,0,0,1.3-.22l.18,1.62a7.07,7.07,0,0,1-1,.19A7.74,7.74,0,0,1,130.93,88Z"/><path class="cls-11" d="M137.52,88a3.52,3.52,0,0,1-2.49-.83,3.19,3.19,0,0,1-.88-2.4,3.44,3.44,0,0,1,.75-2.37,2.68,2.68,0,0,1,2.11-.85,2.65,2.65,0,0,1,2.05.78,3.19,3.19,0,0,1,.73,2.27c0,.28,0,.55,0,.8H135.2v-1.1h3a1.3,1.3,0,0,0-.32-1A1.18,1.18,0,0,0,137,83a1.15,1.15,0,0,0-1,.44,2,2,0,0,0-.35,1.26,1.69,1.69,0,0,0,.51,1.33,2.06,2.06,0,0,0,1.44.46,7.75,7.75,0,0,0,.84,0l.83-.12.16,1.5a9.69,9.69,0,0,1-1.09.13Z"/><path class="cls-11" d="M143.1,88a2.23,2.23,0,0,1-1.54-.49,1.72,1.72,0,0,1-.55-1.38,1.91,1.91,0,0,1,.72-1.6,3.29,3.29,0,0,1,2.05-.56,5.61,5.61,0,0,1,.88.06,5.3,5.3,0,0,1,.75.16l-.26,1.24a3.63,3.63,0,0,0-.67-.1l-.63,0c-.82,0-1.23.24-1.23.7a.6.6,0,0,0,.22.49,1.1,1.1,0,0,0,.65.16,1.75,1.75,0,0,0,.87-.19,1.27,1.27,0,0,0,.51-.49,1.2,1.2,0,0,0,.18-.62V85l.22,1.59h-.5l.21-.19a1.77,1.77,0,0,1-.25.9,1.41,1.41,0,0,1-.64.54A2.5,2.5,0,0,1,143.1,88Zm2.11-.06-.14-1.84,0-.81V84.06a.78.78,0,0,0-.43-.73,2.85,2.85,0,0,0-1.26-.25l-1.59,0,.12-1.44,1.35,0a4.16,4.16,0,0,1,2.51.67,2.21,2.21,0,0,1,.82,1.87v2.29l.86.13v1.29Z"/><path class="cls-11" d="M150.19,88a1.69,1.69,0,0,1-1.37-.58,2.54,2.54,0,0,1-.49-1.65v-4.1h1.59v3.71a1.23,1.23,0,0,0,.24.82.83.83,0,0,0,.68.29.94.94,0,0,0,.84-.43A2.69,2.69,0,0,0,152,84.6l.32,2.07h-.48a1.72,1.72,0,0,1-.57,1A1.59,1.59,0,0,1,150.19,88ZM152,86.11V81.65h1.59v4.1Zm.11,1.81L152,86.43V85.34h1.59v1.1l.85.13v1.29Z"/></svg>