<svg id="Layer_1" data-name="Layer 1" xmlns="http://www.w3.org/2000/svg" viewBox="0 0 260 195"><defs><style>.cls-1{fill:none;stroke:#363636;stroke-miterlimit:10;stroke-width:0.5px;}.cls-2{font-size:48px;font-family:Harmond-ExtraBoldExpanded, Harmond;font-weight:800;}.cls-2,.cls-6{fill:#363636;}.cls-3{letter-spacing:-0.01em;}.cls-4{letter-spacing:-0.08em;}.cls-5{letter-spacing:-0.02em;}.cls-6{font-size:16px;font-family:NotoMono, Noto Mono;}.cls-7{fill:#a6d189;}.cls-8{fill:#fff;}</style></defs><line class="cls-1" x1="16.51" y1="84.54" x2="243.49" y2="84.54"/><rect class="cls-1" x="8.29" y="6.45" width="243.42" height="182.1"/><text class="cls-2" transform="translate(53.78 58.41)"><tspan class="cls-3">c</tspan><tspan class="cls-4" x="32.88" y="0">o</tspan><tspan class="cls-3" x="65.09" y="0">v</tspan><tspan class="cls-5" x="96.96" y="0">i</tspan><tspan x="113.9" y="0">d</tspan></text><text class="cls-6" transform="translate(23.47 117.65)">covid-19 data <tspan x="0" y="19.2">exploration with SQL</tspan></text><rect class="cls-7" x="104.72" y="75.43" width="50.56" height="17.83" rx="5.77"/><path class="cls-8" d="M122.49,88c-.47,0-.89,0-1.26,0a7.59,7.59,0,0,1-1-.14l.19-1.51,1.24.14c.33,0,.6,0,.79,0a4.54,4.54,0,0,0,1.15-.1c.24-.08.36-.19.36-.35a.3.3,0,0,0-.09-.23.8.8,0,0,0-.28-.14l-2-.58a1.82,1.82,0,0,1-.93-.56,1.47,1.47,0,0,1-.32-1,1.62,1.62,0,0,1,.85-1.5,5.29,5.29,0,0,1,2.56-.49l.83,0,.91.09-.17,1.47-.94-.06-.67,0a6,6,0,0,0-1.33.1c-.28.07-.42.18-.42.34a.3.3,0,0,0,.09.23.85.85,0,0,0,.27.13l1.74.48a2.44,2.44,0,0,1,1.19.63,1.45,1.45,0,0,1,.4,1.07,1.63,1.63,0,0,1-.78,1.48A4.74,4.74,0,0,1,122.49,88Z"/><path class="cls-8" d="M129.33,88a2.08,2.08,0,0,1-1.76-.82,3.81,3.81,0,0,1-.62-2.34,4.14,4.14,0,0,1,.62-2.43,2.08,2.08,0,0,1,1.77-.86,1.64,1.64,0,0,1,1.07.31,1.49,1.49,0,0,1,.48.94h.52l-.37,1.9a2,2,0,0,0-.31-1.24,1.08,1.08,0,0,0-.93-.41,1,1,0,0,0-.91.46,2.4,2.4,0,0,0-.32,1.33,2.08,2.08,0,0,0,.31,1.25,1.07,1.07,0,0,0,.92.42,1.16,1.16,0,0,0,.93-.37A1.6,1.6,0,0,0,131,85V84.7l.43,2.2h-.58a1.19,1.19,0,0,1-.5.81A1.87,1.87,0,0,1,129.33,88ZM131,90.56V83l.12-1.31h1.47v8.91Z"/><path class="cls-8" d="M134,80.53V79.07h1.86v1.46ZM138,88a2,2,0,0,1-1.69-.64,3.28,3.28,0,0,1-.52-2.07v-6.2h1.58v6.14a2.27,2.27,0,0,0,.08.64.63.63,0,0,0,.32.36,1.6,1.6,0,0,0,.7.12,5.39,5.39,0,0,0,1.3-.22l.18,1.62a7.07,7.07,0,0,1-1,.19A7.74,7.74,0,0,1,138,88Z"/></svg>